<svg xmlns="http://www.w3.org/2000/svg" viewBox="0 0 39.68 59.53" width="40" height="60"><defs><style>.cls-1{fill:#fff}</style></defs><g id="Layer_2" data-name="Layer 2"><g id="Layer_1-2" data-name="Layer 1"><path class="cls-1" d="M39.69 0H0v59.53h39.69V0z"/><path d="M39.11.64v58.25H.58V.64h38.53"/><path class="cls-1" d="M2.52 2.71H36.9v9.66H2.52zM2.5 14.47h34.4v35.51H2.5zM2.51 56.79v-4.71h6.9v1.1H5.28v.67h3.5v1.1h-3.5v.74h4.29v1.1H2.51zM15.44 53.45a.52.52 0 0 0-.4-.32 2.53 2.53 0 0 0-.72-.09c-.61 0-.88.1-.88.28 0 .69 4.87.26 4.87 2 0 1.09-1.64 1.63-4 1.63s-3.7-.73-3.75-1.58h2.65a.69.69 0 0 0 .46.37 2.52 2.52 0 0 0 .79.12c.69 0 1.16-.12 1.16-.35 0-.71-4.88-.22-4.88-2 0-1 1.56-1.5 3.67-1.5 2.35 0 3.43.66 3.63 1.49zM22.46 54.12h1.09c.86 0 1.32-.12 1.32-.45s-.47-.49-1.11-.49h-1.3zm0 1v1.64h-2.77v-4.68h4c2.82 0 3.75.43 3.75 1.34 0 .55-.44 1-1.43 1.16.9.18 1.44.29 1.44 1.24 0 .61 0 .83.29.83v.14h-2.81a1.83 1.83 0 0 1-.14-.82c0-.62-.19-.82-1.48-.82zM31.91 53.18V54h1.16c.55 0 1-.14 1-.41s-.54-.38-1.13-.38zm0 1.64v.87h1.21c.69 0 1.21-.08 1.21-.43s-.65-.44-1.53-.44zm-2.77 2v-4.74h4c1.9 0 3.42.25 3.42 1.18 0 .49-.57.84-1.1 1 .91.13 1.4.57 1.4 1.08 0 1.05-1.44 1.42-3.64 1.42z"/><path d="M5.07 22.68l20.82-6.22 2.08 6.6-10.42 3.11.85 2.7 9.63-2.88 2.09 6.6-9.63 2.87.9 2.84 10.77-3.22 2.08 6.59-21.15 6.32-8.02-25.31M3.47 10.27V4.8h2.95v.85H4.6V7h1.68v.84H4.6v1.6h1.88v.84zM6.78 4.8H8l.83 4 .94-4h1.12l-1.45 5.47H8.11zM11.38 10.27V4.8h2.95v.85h-1.82V7h1.68v.84h-1.68v1.6h1.88v.84zM16.23 10.27H15.1V4.8h2.09a1.16 1.16 0 0 1 .92.37 1.5 1.5 0 0 1 .34 1.07 1.64 1.64 0 0 1-.22.88 1.09 1.09 0 0 1-.78.46h.26a.87.87 0 0 1 .32.13.89.89 0 0 1 .28.32 1.17 1.17 0 0 1 .12.58v.85c0 .17 0 .32.05.46a1 1 0 0 0 .06.29h-1.09a1.31 1.31 0 0 1-.11-.52V8.75a.89.89 0 0 0-.08-.38.47.47 0 0 0-.26-.26.92.92 0 0 0-.49-.1h-.29zm0-3.1h.5a.51.51 0 0 0 .27-.08.47.47 0 0 0 .18-.19.8.8 0 0 0 .09-.26 1.41 1.41 0 0 0 0-.28.8.8 0 0 0-.15-.55.57.57 0 0 0-.43-.16h-.5zM20.17 8.38L18.75 4.8H20l.81 2.31.86-2.31h1.15L21.3 8.38v1.89h-1.13zM25.15 10.36a2.06 2.06 0 0 1-1.08-.23 1.42 1.42 0 0 1-.55-.64 2.38 2.38 0 0 1-.2-.91v-1-1a2.38 2.38 0 0 1 .2-.91 1.39 1.39 0 0 1 .55-.67 2.55 2.55 0 0 1 2.16 0 1.39 1.39 0 0 1 .55.63 2.59 2.59 0 0 1 .2.91v2a2.59 2.59 0 0 1-.2.91 1.42 1.42 0 0 1-.55.64 2.06 2.06 0 0 1-1.08.27zm0-.81a.56.56 0 0 0 .38-.12.79.79 0 0 0 .22-.36 3 3 0 0 0 .1-.63v-.9-.91a3 3 0 0 0-.1-.62.79.79 0 0 0-.22-.36.66.66 0 0 0-.76 0 .72.72 0 0 0-.22.36 3 3 0 0 0-.1.62v1.81a3 3 0 0 0 .1.63.72.72 0 0 0 .22.36.56.56 0 0 0 .38.12zM27.92 10.27V4.8h1.53l1.43 3.79V4.8H32v5.47h-1.53l-1.47-4v4zM32.91 10.27V4.8h3v.85H34V7h1.67v.84H34v1.6h1.88v.84z"/></g></g></svg>